HIERARCHY
ROOT Hips
{
  OFFSET 263.056 91.6644 -274.608
  CHANNELS 6 Xposition Yposition Zposition Zrotation Xrotation Yrotation
  JOINT LeftUpLeg
  {
    OFFSET 8.64259 1.95398 -2.38835
    CHANNELS 3 Zrotation Xrotation Yrotation
    JOINT LeftLeg
    {
      OFFSET 43.7702 0 0
      CHANNELS 3 Zrotation Xrotation Yrotation
      JOINT LeftFoot
      {
        OFFSET 40.6238 0 0
        CHANNELS 3 Zrotation Xrotation Yrotation
        JOINT LeftToeBase
        {
          OFFSET 12.7242 0 0
          CHANNELS 3 Zrotation Xrotation Yrotation
          End Site
          {
            OFFSET 0 0 0
          }
        }
      }
    }
  }
  JOINT RightUpLeg
  {
    OFFSET -8.2249 1.95398 -2.59336
    CHANNELS 3 Zrotation Xrotation Yrotation
    JOINT RightLeg
    {
      OFFSET 43.5653 0 0
      CHANNELS 3 Zrotation Xrotation Yrotation
      JOINT RightFoot
      {
        OFFSET 40.6238 0 0
        CHANNELS 3 Zrotation Xrotation Yrotation
        JOINT RightToeBase
        {
          OFFSET 12.7242 0 0
          CHANNELS 3 Zrotation Xrotation Yrotation
          End Site
          {
            OFFSET 0 0 0
          }
        }
      }
    }
  }
  JOINT Spine
  {
    OFFSET 0.165834 0.87714 6.61349
    CHANNELS 3 Zrotation Xrotation Yrotation
    JOINT Spine1
    {
      OFFSET 7.38963 1.71661e-005 0
      CHANNELS 3 Zrotation Xrotation Yrotation
      JOINT Spine2
      {
        OFFSET 11.9445 1.14441e-005 0
        CHANNELS 3 Zrotation Xrotation Yrotation
        JOINT Spine3
        {
          OFFSET 14.7254 4.19617e-005 0
          CHANNELS 3 Zrotation Xrotation Yrotation
          JOINT Spine4
          {
            OFFSET 10.9679 0 0
            CHANNELS 3 Zrotation Xrotation Yrotation
            JOINT RightShoulder
            {
              OFFSET 2.46616 -1.6653 3.69651
              CHANNELS 3 Zrotation Xrotation Yrotation
              JOINT RightArm
              {
                OFFSET 13.0012 0 0
                CHANNELS 3 Zrotation Xrotation Yrotation
                JOINT RightForeArm
                {
                  OFFSET 28.7848 1.52588e-005 0
                  CHANNELS 3 Zrotation Xrotation Yrotation
                  JOINT RightHand
                  {
                    OFFSET 26.5688 1.52588e-005 0
                    CHANNELS 3 Zrotation Xrotation Yrotation
                    End Site
                    {
                      OFFSET 0 0 0
                    }
                  }
                }
              }
            }
            JOINT LeftShoulder
            {
              OFFSET 2.38034 -1.29275 -3.7523
              CHANNELS 3 Zrotation Xrotation Yrotation
              JOINT LeftArm
              {
                OFFSET 16.3182 6.10352e-005 0
                CHANNELS 3 Zrotation Xrotation Yrotation
                JOINT LeftForeArm
                {
                  OFFSET 27.0901 0 0
                  CHANNELS 3 Zrotation Xrotation Yrotation
                  JOINT LeftHand
                  {
                    OFFSET 24.5451 1.52588e-005 0
                    CHANNELS 3 Zrotation Xrotation Yrotation
                    End Site
                    {
                      OFFSET 0 0 0
                    }
                  }
                }
              }
            }
            JOINT Neck
            {
              OFFSET 5.0226 -0.0266342 0
              CHANNELS 3 Zrotation Xrotation Yrotation
              JOINT Head
              {
                OFFSET 6.69364 2.86102e-005 0
                CHANNELS 3 Zrotation Xrotation Yrotation
                End Site
                {
                  OFFSET 0 0 0
                }
              }
            }
          }
        }
      }
    }
  }
}
MOTION
Frames:	9
Frame Time:	0.0416667
-55.2624 88.9163 -159.257 -119.355 -83.6714 -127.202 -173.274 8.11745 109.082 -15.8053 16.733 4.02099 41.2029 -9.37666 0.64615 25.7775 -4.07634 3.82404 -177.215 23.2339 77.463 -53.6827 0.749905 -11.2598 76.1115 -6.13854 -2.87256 54.3417 3.75292 13.2205 -0.246936 7.74829 -89.7366 11.378 -0.3684 0.561786 -0.293053 -0.343314 0.577451 -22.828 -0.520213 0.425092 -2.81538 -0.520209 0.425099 81.2814 -50.7832 -113.698 20.4417 -8.15086 5.32741 -9.18137 -12.462 -45.9862 -17.7731 -1.43853 4.76427 -103.673 -43.839 56.0099 -19.1874 -2.02017 13.0631 7.17826 4.24083 -32.5942 10.1523 0.77456 3.50114 4.36739 2.2075 7.78978 4.08356 0.986123 3.09772 
-57.5087 89.4321 -159.469 -113.027 -83.5868 -121.556 -173.385 8.41078 107.607 -15.901 17.181 4.05814 45.2542 -6.6472 2.27241 27.614 -1.68225 2.62995 -176.738 23.3688 78.4991 -53.0446 1.35985 -11.268 76.7321 -6.5535 -3.02483 52.8686 3.56173 13.7272 -0.247386 7.72649 -89.7102 11.4215 -0.356841 0.613378 -0.249532 -0.329498 0.628479 -22.7843 -0.524688 0.477778 -2.77165 -0.524695 0.477773 80.7766 -50.8129 -114.43 19.7535 -8.64722 6.09296 -8.78063 -12.13 -46.3686 -17.4302 -1.2811 3.81639 -103.619 -44.2113 56.2645 -18.8141 -1.95675 13 7.48087 4.46154 -34.0061 10.6418 0.896266 4.26771 4.38982 2.3011 8.29588 4.39969 0.961991 2.60733 
-59.4661 90.1841 -159.716 -105.205 -83.5282 -114.326 -173.224 8.77203 105.646 -15.1487 15.3433 3.67665 46.901 -5.32371 3.01799 31.1825 2.6496 0.714896 -176.561 23.3981 79.2896 -51.5571 1.3081 -11.1689 76.7819 -6.55204 -3.01911 51.5577 3.50219 15.028 -0.220898 7.70522 -89.6997 11.4639 -0.299178 0.62852 -0.207189 -0.271229 0.641072 -22.7418 -0.474247 0.509549 -2.72911 -0.474243 0.509551 80.7597 -50.524 -114.566 19.2591 -8.96606 6.25574 -8.74576 -12.0072 -46.4703 -17.1294 -1.28675 4.00027 -103.954 -44.3296 55.8177 -18.5906 -2.55366 13.1283 8.29802 4.95668 -35.6756 10.8503 0.902628 4.18334 4.73543 2.40901 8.44759 4.71414 1.03777 2.83752 
-61.1661 90.9817 -159.867 -95.2304 -83.7479 -104.693 -173.028 10.1494 103.4 -15.9806 12.9694 3.17682 49.3246 -4.00005 2.75369 34.3727 6.24662 2.5378 -176.62 23.5171 80.0061 -49.7879 0.782715 -10.871 76.8246 -6.5624 -3.02216 49.6031 3.26948 16.2743 -0.210291 7.63648 -89.715 11.6014 -0.284774 0.597521 -0.0696874 -0.258196 0.60947 -22.6043 -0.451183 0.484318 -2.59166 -0.451185 0.484312 80.4035 -51.0618 -114.883 17.6932 -9.32527 6.48945 -8.69014 -12.418 -46.368 -16.656 -1.40239 5.10475 -104.179 -44.3507 55.4919 -18.5091 -2.86669 13.1107 8.50679 4.65616 -37.0561 10.9153 0.912108 4.2214 5.37177 2.57277 8.52922 4.26034 1.13675 3.02583 
-62.6009 91.7423 -160.015 -90.5813 -83.7814 -100.139 -172.513 10.6586 101.255 -16.2595 11.3947 2.32787 51.4411 -2.06466 4.95945 36.6571 8.88614 2.28873 -176.667 22.9158 80.879 -47.8095 0.264413 -10.7876 76.3281 -6.26024 -2.91256 48.4324 3.09569 16.8809 -0.197107 7.64038 -89.7319 11.5935 -0.266518 0.561747 -0.077532 -0.241532 0.572932 -22.6122 -0.423028 0.455687 -2.59958 -0.423027 0.455678 80.5008 -51.2608 -114.664 16.8733 -9.46999 6.25188 -8.38668 -12.7145 -45.4473 -16.1306 -1.29864 4.62005 -103.94 -44.2499 55.8017 -18.5941 -2.70748 12.6278 8.14531 3.9822 -37.9774 11.2014 0.88228 3.79049 5.78772 2.64101 8.23863 4.44321 1.24455 3.21224 
-63.8543 92.5514 -160.215 -88.0685 -84.0625 -97.5647 -172.065 11.3714 99.1479 -17.4911 6.93574 1.6101 54.5027 -0.523198 2.29625 37.1254 9.49352 3.56184 -176.931 21.8912 81.7014 -45.2515 0.024399 -10.4989 75.8605 -6.05862 -2.84518 46.7549 2.82858 17.7961 -0.220697 7.65166 -89.7703 11.5712 -0.331466 0.491801 -0.0998305 -0.309498 0.505924 -22.6349 -0.463949 0.369455 -2.62222 -0.463952 0.369451 80.6118 -50.7566 -114.694 16.9072 -9.20389 6.58566 -7.86682 -12.8053 -44.9275 -16.0229 -1.3219 4.85383 -103.963 -44.2402 55.7628 -18.5044 -2.67864 12.5371 8.57591 4.27873 -39.5761 11.1639 0.885578 3.84088 5.56026 2.5579 8.41011 4.91436 1.13694 2.88368 
-64.9253 93.2951 -160.362 -88.0547 -84.3858 -97.5112 -171.918 11.7138 96.768 -18.8185 5.16563 0.896388 56.0152 0.686392 3.44761 38.4895 11.0436 2.93147 -177.18 20.7525 82.4161 -42.9834 -0.0410083 -10.2961 74.9753 -5.66248 -2.7056 45.174 2.53078 18.4346 -0.222481 7.67686 -89.8235 11.5206 -0.360008 0.388552 -0.150321 -0.342562 0.404006 -22.6856 -0.460143 0.262385 -2.67298 -0.460139 0.262384 80.8986 -50.4207 -114.4 16.6861 -8.78631 6.73462 -7.6038 -12.6918 -43.995 -15.2295 -1.28772 5.05512 -104.584 -44.5095 54.9632 -18.0323 -2.85775 12.4841 9.00297 4.44517 -40.9156 11.4785 0.909201 3.84489 5.63818 2.36987 9.03488 4.68031 0.790405 2.41495 
-65.8366 93.9525 -160.475 -88.4048 -85.1479 -97.5699 -171.845 12.2532 94.6393 -20.5103 4.29292 0.215588 57.8866 2.0796 3.96017 39.07 11.8219 4.05437 -177.641 19.5119 83.1925 -40.5562 0.300251 -9.85731 74.1482 -5.25391 -2.55138 43.6808 2.22948 18.9618 -0.258892 7.67998 -89.8467 11.5146 -0.4433 0.350779 -0.156325 -0.427431 0.369931 -22.6919 -0.528229 0.201333 -2.67929 -0.52823 0.201319 80.8331 -50.7774 -114.361 16.3585 -8.44499 7.02653 -7.12244 -12.1465 -43.3518 -14.8218 -1.2793 5.23145 -104.604 -44.2469 54.8078 -17.7672 -3.01983 12.4634 9.6972 4.99815 -42.2633 11.8036 0.971474 4.15511 5.22859 2.16443 8.43041 4.85702 0.751436 2.61416 
-66.6436 94.58 -160.537 -89.8124 -85.6379 -98.5484 -171.747 12.6548 92.6758 -22.4072 3.86613 -0.418007 60.0566 3.73116 4.91433 40.1027 12.9651 3.41028 -177.774 18.1462 84.0728 -38.1942 -0.179401 -9.56558 72.8801 -4.83177 -2.39981 42.6925 1.88263 17.0412 -0.286556 7.67906 -89.8918 11.5164 -0.519459 0.268687 -0.154458 -0.507129 0.291268 -22.6904 -0.576189 0.100138 -2.67776 -0.576188 0.100133 80.728 -50.5946 -114.585 16.5869 -7.67054 7.63376 -7.32901 -12.4461 -42.8919 -14.0544 -1.19457 5.01771 -104.696 -44.2057 54.6506 -17.5753 -3.08474 12.4555 9.7763 4.81365 -43.2363 12.3765 0.97578 3.85492 4.59124 1.93696 8.0339 5.23126 0.647947 2.51498 
